<svg xmlns="http://www.w3.org/2000/svg" xmlns:xlink="http://www.w3.org/1999/xlink" width="500" zoomAndPan="magnify" viewBox="0 0 375 374.999991" height="500" preserveAspectRatio="xMidYMid meet" version="1.0"><defs><g/></defs><path stroke-linecap="butt" transform="matrix(18.035809, -0.0448294, 0.0448294, 18.035809, 48.84718, 163.841092)" fill="none" stroke-linejoin="miter" d="M 0.0000265947 -0.0000691235 L 16.000097 0.0000656218 " stroke="rgb(100%, 100%, 100%)" stroke-width="1" stroke-opacity="1" stroke-miterlimit="4"/><path stroke-linecap="butt" transform="matrix(18.060193, 0, 0, 18.035866, 128.485544, 101.214193)" fill="none" stroke-linejoin="miter" d="M -0.0000647315 0.0000361056 L 11.586839 0.0000361056 " stroke="rgb(100%, 100%, 100%)" stroke-width="1" stroke-opacity="1" stroke-miterlimit="4"/><g fill="rgb(100%, 100%, 100%)" fill-opacity="1"><g transform="translate(129.147862, 263.467787)"><g><path d="M 3.691406 0 L 16.925781 0 L 16.925781 -22.238281 C 16.925781 -26.621094 19.3125 -29.546875 23.082031 -29.546875 C 26.777344 -29.546875 29.238281 -26.621094 29.238281 -22.238281 L 29.238281 0 L 42.394531 0 L 42.394531 -22.238281 C 42.394531 -26.621094 44.933594 -29.546875 48.859375 -29.546875 C 52.859375 -29.390625 55.246094 -26.316406 55.246094 -22.238281 L 55.246094 0 L 68.480469 0 L 68.480469 -25.390625 C 68.480469 -34.46875 62.707031 -40.550781 54.398438 -40.550781 C 48.398438 -40.550781 43.933594 -37.472656 42.164062 -32.316406 L 41.472656 -32.316406 C 39.78125 -37.242188 35.007812 -40.550781 29.46875 -40.550781 C 24.238281 -40.550781 19.851562 -37.546875 17.621094 -32.933594 L 16.851562 -32.933594 L 16.851562 -39.546875 L 3.691406 -39.546875 Z M 3.691406 0 "/></g></g></g><g fill="rgb(100%, 100%, 100%)" fill-opacity="1"><g transform="translate(199.313265, 263.467787)"><g><path d="M 24.007812 1 C 34.085938 1 42.472656 -4 44.394531 -11.617188 L 32.855469 -13.234375 C 31.699219 -10.15625 28.621094 -7.925781 24.699219 -7.925781 C 19.621094 -7.925781 16.15625 -11.234375 15.386719 -16.234375 L 45.628906 -16.234375 C 45.703125 -16.851562 45.78125 -18.695312 45.78125 -19.621094 C 45.78125 -32.394531 37.242188 -40.550781 24.160156 -40.550781 C 11.078125 -40.550781 1.769531 -32.46875 1.769531 -19.851562 C 1.769531 -7.15625 10.847656 1 24.007812 1 Z M 15.234375 -23.082031 C 15.925781 -28.238281 19.160156 -31.625 23.929688 -31.625 C 28.777344 -31.625 32.316406 -27.777344 32.546875 -23.082031 Z M 15.234375 -23.082031 "/></g></g></g><g fill="rgb(100%, 100%, 100%)" fill-opacity="1"><g transform="translate(245.243792, 263.467787)"><g><path d="M 3.691406 0 L 16.925781 0 L 16.925781 -22.003906 C 16.925781 -26.390625 19.851562 -29.546875 23.699219 -29.546875 C 27.621094 -29.546875 30.085938 -26.316406 30.085938 -21.851562 L 30.085938 0 L 43.320312 0 L 43.320312 -24.46875 C 43.320312 -33.777344 37.625 -40.550781 29.390625 -40.550781 C 24.238281 -40.550781 20.621094 -38.085938 17.542969 -33.085938 L 16.925781 -33.085938 L 16.925781 -39.546875 L 3.691406 -39.546875 Z M 3.691406 0 "/></g></g></g><g fill="rgb(100%, 100%, 100%)" fill-opacity="1"><g transform="translate(290.251082, 263.467787)"><g><path d="M 17.160156 1 C 22.238281 1 25.929688 -1.460938 28.929688 -6.464844 L 29.625 -6.464844 L 29.625 0 L 42.855469 0 L 42.855469 -39.546875 L 29.625 -39.546875 L 29.625 -17.542969 C 29.625 -13.15625 26.699219 -10.003906 22.851562 -10.003906 C 18.929688 -10.003906 16.464844 -13.234375 16.464844 -17.695312 L 16.464844 -39.546875 L 3.230469 -39.546875 L 3.230469 -15.082031 C 3.230469 -5.769531 8.925781 1 17.160156 1 Z M 17.160156 1 "/></g></g></g></svg>